<svg xmlns="http://www.w3.org/2000/svg" viewBox="0 0 1800 600" width="1800" height="600"><path d="M 1055 213 L 1054 214 L 1054 239 L 1058 243 L 1060 243 L 1070 250 L 1084 257 L 1229 257 L 1231 259 L 1231 455 L 1233 459 L 1234 465 L 1236 467 L 1236 469 L 1239 474 L 1239 476 L 1241 478 L 1241 480 L 1243 484 L 1249 492 L 1275 492 L 1276 491 L 1276 218 L 1275 217 L 1275 215 L 1271 213 L 1157 213 L 1156 212 L 1086 212 L 1085 213 Z M 723 214 L 721 213 L 594 213 L 593 212 L 513 212 L 512 213 L 506 213 L 504 215 L 504 286 L 505 287 L 505 492 L 506 493 L 532 493 L 536 487 L 537 483 L 539 481 L 539 479 L 542 475 L 543 471 L 545 469 L 545 466 L 548 463 L 548 460 L 550 457 L 550 454 L 551 453 L 551 258 L 552 257 L 693 257 L 698 254 L 700 254 L 705 250 L 709 249 L 711 247 L 716 245 L 723 240 Z M 1382 149 L 1382 176 L 1384 178 L 1385 181 L 1389 185 L 1390 188 L 1398 197 L 1400 201 L 1406 208 L 1416 223 L 1420 227 L 1423 233 L 1427 237 L 1431 244 L 1436 250 L 1437 253 L 1441 257 L 1453 275 L 1458 280 L 1469 297 L 1473 301 L 1474 304 L 1481 312 L 1482 315 L 1487 321 L 1489 325 L 1493 329 L 1497 336 L 1525 373 L 1536 390 L 1540 394 L 1543 400 L 1548 405 L 1550 409 L 1555 415 L 1583 415 L 1587 408 L 1593 401 L 1596 395 L 1600 391 L 1603 385 L 1607 381 L 1610 375 L 1612 374 L 1617 366 L 1621 362 L 1624 356 L 1628 352 L 1631 346 L 1639 337 L 1639 335 L 1643 331 L 1647 324 L 1654 317 L 1655 314 L 1671 293 L 1672 290 L 1678 284 L 1679 281 L 1686 273 L 1688 268 L 1694 262 L 1697 256 L 1701 252 L 1703 248 L 1709 241 L 1710 238 L 1715 233 L 1718 227 L 1723 222 L 1724 219 L 1730 212 L 1733 206 L 1738 201 L 1740 196 L 1747 189 L 1748 186 L 1756 175 L 1756 149 L 1755 148 L 1710 148 L 1708 149 L 1694 167 L 1690 174 L 1686 178 L 1682 185 L 1678 189 L 1674 196 L 1670 200 L 1669 203 L 1662 211 L 1661 214 L 1655 221 L 1645 236 L 1638 244 L 1637 247 L 1633 251 L 1629 258 L 1625 262 L 1615 277 L 1606 288 L 1604 292 L 1601 295 L 1600 298 L 1586 316 L 1585 319 L 1581 323 L 1579 327 L 1576 330 L 1562 330 L 1552 316 L 1548 312 L 1545 306 L 1540 301 L 1537 295 L 1531 288 L 1529 284 L 1525 280 L 1522 274 L 1518 270 L 1514 263 L 1503 249 L 1502 246 L 1480 217 L 1479 214 L 1475 210 L 1471 203 L 1467 199 L 1464 193 L 1460 189 L 1456 182 L 1452 178 L 1449 172 L 1445 168 L 1443 163 L 1439 159 L 1438 156 L 1435 152 L 1429 148 L 1383 148 Z M 91 148 L 89 150 L 89 495 L 90 497 L 93 499 L 159 499 L 161 496 L 161 417 L 165 413 L 166 413 L 171 408 L 171 407 L 174 405 L 218 361 L 233 361 L 242 373 L 249 380 L 254 388 L 262 396 L 267 404 L 275 412 L 280 420 L 287 427 L 289 431 L 299 442 L 305 451 L 312 458 L 317 466 L 324 473 L 328 480 L 333 485 L 334 488 L 341 496 L 346 499 L 426 499 L 428 498 L 428 473 L 426 471 L 423 465 L 414 456 L 408 447 L 403 442 L 399 435 L 390 426 L 387 421 L 376 409 L 374 405 L 363 393 L 358 385 L 351 378 L 349 374 L 340 364 L 333 354 L 327 348 L 325 344 L 317 336 L 312 328 L 308 324 L 308 323 L 306 322 L 300 313 L 291 303 L 291 288 L 377 202 L 378 202 L 386 194 L 393 189 L 394 187 L 405 177 L 406 175 L 406 149 L 405 148 L 322 148 L 314 153 L 301 166 L 301 167 L 299 168 L 295 172 L 295 173 L 293 174 L 293 175 L 290 177 L 290 178 L 176 291 L 162 291 L 161 290 L 161 154 L 160 153 L 160 150 L 158 148 Z M 219 300 L 226 293 L 227 293 L 232 287 L 234 286 L 248 286 L 249 287 L 249 314 L 248 315 L 220 315 L 219 314 Z M 116 174 L 133 174 L 135 176 L 135 323 L 133 325 L 133 357 L 156 357 L 157 358 L 157 372 L 156 374 L 150 378 L 150 379 L 148 380 L 143 386 L 141 386 L 139 389 L 135 391 L 135 473 L 134 474 L 117 474 L 115 472 L 115 175 Z M 831 143 L 829 145 L 829 148 L 828 149 L 828 492 L 829 493 L 829 498 L 831 499 L 959 499 L 961 497 L 961 145 L 959 143 L 956 143 L 955 142 L 838 142 L 837 143 Z M 919 168 L 935 168 L 936 169 L 936 473 L 935 474 L 919 474 L 918 473 L 918 169 Z M 855 168 L 871 168 L 872 169 L 872 473 L 871 474 L 855 474 L 854 473 L 854 169 Z M 1236 73 L 1220 89 L 1219 89 L 1207 102 L 1207 130 L 1222 145 L 1223 145 L 1235 158 L 1237 159 L 1263 159 L 1293 130 L 1294 128 L 1294 103 L 1291 99 L 1264 73 Z" fill="black" fill-rule="evenodd"/></svg>
