<svg xmlns="http://www.w3.org/2000/svg" viewBox="0 0 1800 600" width="1800" height="600">
  <path d="M 1067 225 L 1066 227 L 1070 231 L 1072 231 L 1082 238 L 1096 245 L 1241 245 L 1243 247 L 1243 443 L 1245 447 L 1246 453 L 1248 455 L 1248 457 L 1251 462 L 1251 464 L 1253 466 L 1253 468 L 1255 472 L 1261 480 L 1263 480 L 1264 479 L 1264 230 L 1263 229 L 1263 227 L 1259 225 L 1145 225 L 1144 224 L 1115 224 L 1114 225 L 1111 225 L 1110 224 L 1098 224 L 1097 225 Z M 1071 227 L 1084 227 L 1086 229 L 1090 229 L 1093 227 L 1097 227 L 1098 226 L 1151 226 L 1152 227 L 1172 227 L 1174 229 L 1175 228 L 1181 228 L 1182 229 L 1184 229 L 1185 228 L 1186 229 L 1199 229 L 1203 227 L 1205 227 L 1206 229 L 1207 228 L 1213 228 L 1214 229 L 1215 228 L 1221 228 L 1222 229 L 1224 227 L 1240 227 L 1243 229 L 1244 228 L 1248 228 L 1249 229 L 1259 229 L 1261 228 L 1262 229 L 1262 471 L 1260 475 L 1258 472 L 1259 471 L 1256 468 L 1256 464 L 1253 462 L 1253 459 L 1250 457 L 1250 452 L 1247 450 L 1247 247 L 1246 245 L 1244 244 L 1097 244 L 1095 241 L 1091 241 L 1089 238 L 1085 238 L 1084 236 L 1081 235 L 1079 232 L 1076 232 L 1075 230 L 1077 229 L 1071 229 L 1070 228 Z M 711 226 L 709 225 L 582 225 L 581 224 L 525 224 L 524 225 L 518 225 L 516 227 L 516 274 L 517 275 L 517 480 L 518 481 L 520 481 L 524 475 L 525 471 L 527 469 L 527 467 L 530 463 L 531 459 L 533 457 L 533 454 L 536 451 L 536 448 L 538 445 L 538 442 L 539 441 L 539 267 L 538 266 L 538 247 L 540 245 L 681 245 L 686 242 L 688 242 L 693 238 L 697 237 L 699 235 L 709 230 L 711 228 Z M 707 227 L 708 228 L 707 229 L 704 230 L 702 232 L 699 232 L 697 235 L 693 235 L 690 239 L 688 238 L 686 241 L 682 241 L 679 244 L 536 244 L 534 247 L 534 262 L 535 263 L 535 270 L 537 272 L 537 314 L 536 315 L 536 327 L 537 328 L 537 338 L 536 339 L 537 401 L 536 402 L 536 406 L 535 407 L 535 441 L 534 442 L 534 450 L 532 451 L 531 453 L 532 455 L 529 457 L 529 461 L 526 463 L 526 467 L 523 469 L 523 473 L 520 476 L 519 475 L 519 228 L 520 227 L 534 227 L 535 226 L 561 226 L 562 227 L 582 227 L 583 226 L 594 226 L 595 227 L 604 227 L 605 228 L 610 228 L 611 229 L 667 229 L 668 228 L 702 229 L 705 227 Z M 1394 161 L 1394 164 L 1396 166 L 1397 169 L 1401 173 L 1402 176 L 1410 185 L 1412 189 L 1418 196 L 1428 211 L 1432 215 L 1435 221 L 1439 225 L 1443 232 L 1448 238 L 1449 241 L 1453 245 L 1465 263 L 1470 268 L 1481 285 L 1485 289 L 1486 292 L 1493 300 L 1494 303 L 1499 309 L 1501 313 L 1505 317 L 1509 324 L 1537 361 L 1548 378 L 1552 382 L 1555 388 L 1560 393 L 1562 397 L 1567 403 L 1571 403 L 1575 396 L 1581 389 L 1584 383 L 1588 379 L 1591 373 L 1595 369 L 1598 363 L 1600 362 L 1605 354 L 1609 350 L 1612 344 L 1616 340 L 1619 334 L 1627 325 L 1627 323 L 1631 319 L 1635 312 L 1642 305 L 1643 302 L 1659 281 L 1660 278 L 1666 272 L 1667 269 L 1674 261 L 1676 256 L 1682 250 L 1685 244 L 1689 240 L 1691 236 L 1697 229 L 1698 226 L 1703 221 L 1706 215 L 1711 210 L 1712 207 L 1718 200 L 1721 194 L 1726 189 L 1728 184 L 1735 177 L 1736 174 L 1744 163 L 1744 161 L 1743 160 L 1722 160 L 1717 164 L 1712 172 L 1706 179 L 1702 186 L 1698 190 L 1694 197 L 1690 201 L 1686 208 L 1682 212 L 1681 215 L 1674 223 L 1673 226 L 1667 233 L 1657 248 L 1650 256 L 1649 259 L 1645 263 L 1641 270 L 1637 274 L 1627 289 L 1618 300 L 1616 304 L 1613 307 L 1612 310 L 1598 328 L 1597 331 L 1593 335 L 1589 342 L 1583 349 L 1574 363 L 1570 367 L 1567 367 L 1563 362 L 1563 360 L 1560 357 L 1557 351 L 1551 344 L 1549 340 L 1545 336 L 1540 328 L 1536 324 L 1533 318 L 1528 313 L 1525 307 L 1519 300 L 1517 296 L 1513 292 L 1510 286 L 1506 282 L 1502 275 L 1491 261 L 1490 258 L 1468 229 L 1467 226 L 1463 222 L 1459 215 L 1455 211 L 1452 205 L 1448 201 L 1444 194 L 1440 190 L 1437 184 L 1433 180 L 1431 175 L 1427 171 L 1426 168 L 1423 164 L 1417 160 L 1395 160 Z M 1395 163 L 1396 162 L 1418 162 L 1422 166 L 1422 169 L 1423 169 L 1425 172 L 1428 174 L 1428 177 L 1429 177 L 1431 179 L 1431 181 L 1434 183 L 1434 186 L 1435 186 L 1437 190 L 1440 192 L 1442 195 L 1442 198 L 1443 198 L 1446 202 L 1449 204 L 1451 207 L 1451 210 L 1452 210 L 1455 214 L 1457 215 L 1457 218 L 1458 218 L 1460 220 L 1460 222 L 1461 222 L 1463 225 L 1466 227 L 1466 231 L 1467 231 L 1469 234 L 1472 236 L 1472 238 L 1474 239 L 1475 243 L 1476 243 L 1478 246 L 1480 247 L 1480 250 L 1483 252 L 1483 253 L 1487 257 L 1486 258 L 1489 260 L 1489 262 L 1491 263 L 1495 268 L 1495 271 L 1498 273 L 1501 277 L 1501 279 L 1503 282 L 1509 288 L 1509 291 L 1512 293 L 1515 297 L 1515 299 L 1519 303 L 1519 304 L 1520 304 L 1522 307 L 1524 308 L 1524 312 L 1525 312 L 1527 315 L 1530 317 L 1530 319 L 1533 321 L 1533 324 L 1534 324 L 1536 327 L 1539 329 L 1539 331 L 1541 333 L 1542 336 L 1543 336 L 1545 339 L 1547 340 L 1547 344 L 1548 344 L 1551 348 L 1554 350 L 1553 351 L 1556 353 L 1556 356 L 1559 358 L 1559 360 L 1562 362 L 1562 365 L 1563 365 L 1566 369 L 1572 369 L 1572 367 L 1575 365 L 1576 362 L 1579 360 L 1579 357 L 1581 356 L 1583 353 L 1584 353 L 1584 350 L 1587 348 L 1587 346 L 1589 345 L 1592 341 L 1593 341 L 1593 338 L 1595 335 L 1599 332 L 1599 330 L 1602 328 L 1602 326 L 1605 322 L 1608 320 L 1608 317 L 1610 316 L 1610 315 L 1614 311 L 1614 309 L 1616 306 L 1619 304 L 1619 302 L 1622 299 L 1622 297 L 1625 295 L 1631 287 L 1631 285 L 1637 279 L 1637 277 L 1640 275 L 1639 274 L 1642 272 L 1642 271 L 1646 267 L 1646 265 L 1648 264 L 1648 262 L 1651 260 L 1651 258 L 1654 256 L 1654 253 L 1660 248 L 1660 245 L 1661 244 L 1663 244 L 1663 241 L 1666 239 L 1669 235 L 1669 233 L 1671 232 L 1672 229 L 1675 227 L 1675 225 L 1678 223 L 1677 222 L 1680 218 L 1683 216 L 1683 213 L 1686 211 L 1686 209 L 1689 207 L 1692 203 L 1692 201 L 1694 200 L 1698 194 L 1701 192 L 1701 189 L 1707 183 L 1707 180 L 1709 179 L 1709 178 L 1712 176 L 1713 173 L 1715 172 L 1715 169 L 1718 167 L 1718 165 L 1722 162 L 1741 162 L 1742 163 L 1739 165 L 1740 167 L 1733 173 L 1733 176 L 1731 179 L 1728 181 L 1726 184 L 1725 184 L 1725 188 L 1719 193 L 1716 197 L 1716 199 L 1713 203 L 1710 205 L 1710 208 L 1707 212 L 1701 217 L 1701 220 L 1699 221 L 1696 225 L 1695 228 L 1693 229 L 1693 231 L 1690 235 L 1687 237 L 1687 240 L 1678 250 L 1679 251 L 1676 253 L 1673 257 L 1672 257 L 1672 260 L 1664 269 L 1664 272 L 1661 274 L 1659 277 L 1658 277 L 1658 279 L 1655 281 L 1655 284 L 1649 289 L 1649 292 L 1646 294 L 1647 295 L 1644 297 L 1641 301 L 1640 301 L 1640 304 L 1638 307 L 1635 309 L 1633 312 L 1632 312 L 1631 316 L 1629 317 L 1629 319 L 1626 321 L 1626 323 L 1623 325 L 1623 327 L 1620 331 L 1617 333 L 1617 335 L 1614 337 L 1615 338 L 1611 342 L 1611 343 L 1608 345 L 1608 348 L 1606 349 L 1606 350 L 1602 354 L 1602 356 L 1600 357 L 1600 359 L 1597 361 L 1597 363 L 1594 365 L 1594 368 L 1591 370 L 1591 372 L 1590 373 L 1588 373 L 1588 376 L 1585 378 L 1586 379 L 1583 381 L 1582 384 L 1579 386 L 1580 388 L 1573 394 L 1573 397 L 1571 398 L 1571 400 L 1569 402 L 1564 397 L 1564 394 L 1563 394 L 1561 391 L 1558 389 L 1558 387 L 1555 385 L 1555 382 L 1549 377 L 1549 374 L 1548 374 L 1547 373 L 1547 371 L 1543 368 L 1543 366 L 1541 365 L 1541 362 L 1535 357 L 1535 355 L 1532 352 L 1532 350 L 1526 345 L 1526 342 L 1523 340 L 1523 338 L 1520 336 L 1520 334 L 1518 333 L 1518 331 L 1514 327 L 1514 326 L 1511 324 L 1511 322 L 1509 321 L 1508 317 L 1507 317 L 1505 314 L 1503 313 L 1503 310 L 1500 308 L 1497 304 L 1497 302 L 1494 300 L 1494 298 L 1491 296 L 1491 294 L 1488 292 L 1488 290 L 1486 287 L 1482 283 L 1482 282 L 1480 281 L 1480 278 L 1478 277 L 1474 272 L 1474 269 L 1473 269 L 1471 266 L 1467 263 L 1465 260 L 1465 257 L 1464 257 L 1462 254 L 1459 252 L 1459 250 L 1456 248 L 1456 245 L 1455 245 L 1453 242 L 1451 241 L 1451 238 L 1449 237 L 1447 233 L 1444 231 L 1444 229 L 1442 228 L 1442 225 L 1436 220 L 1436 217 L 1430 211 L 1430 209 L 1427 206 L 1427 204 L 1426 204 L 1424 201 L 1421 199 L 1421 196 L 1420 196 L 1418 192 L 1417 192 L 1415 189 L 1413 188 L 1413 185 L 1411 184 L 1406 177 L 1404 176 L 1404 173 L 1401 171 L 1398 167 L 1398 165 Z M 103 160 L 101 162 L 101 483 L 102 485 L 105 487 L 147 487 L 149 484 L 149 453 L 148 452 L 148 431 L 149 430 L 149 409 L 148 408 L 149 407 L 149 405 L 153 401 L 154 401 L 159 396 L 159 395 L 162 393 L 226 329 L 227 329 L 233 334 L 233 335 L 251 356 L 254 361 L 261 368 L 266 376 L 274 384 L 279 392 L 287 400 L 292 408 L 299 415 L 304 423 L 311 430 L 317 439 L 324 446 L 329 454 L 336 461 L 340 468 L 345 473 L 346 476 L 353 484 L 358 487 L 414 487 L 416 486 L 411 477 L 402 468 L 396 459 L 391 454 L 387 447 L 378 438 L 375 433 L 364 421 L 358 412 L 351 405 L 346 397 L 339 390 L 337 386 L 328 376 L 321 366 L 315 360 L 313 356 L 305 348 L 300 340 L 296 336 L 296 335 L 294 334 L 288 325 L 280 317 L 276 310 L 262 295 L 262 293 L 365 190 L 366 190 L 374 182 L 381 177 L 382 175 L 393 165 L 394 161 L 393 160 L 334 160 L 326 165 L 313 178 L 313 179 L 311 180 L 307 184 L 307 185 L 305 186 L 305 187 L 302 189 L 302 190 L 243 248 L 242 250 L 241 250 L 164 327 L 163 327 L 163 328 L 158 333 L 157 333 L 156 335 L 149 340 L 148 339 L 148 334 L 149 333 L 148 331 L 149 330 L 148 329 L 148 286 L 149 285 L 149 220 L 148 219 L 148 209 L 149 208 L 149 166 L 148 165 L 148 162 L 146 160 Z M 104 162 L 145 162 L 147 164 L 147 335 L 145 337 L 145 345 L 149 345 L 150 343 L 153 342 L 155 338 L 158 336 L 158 335 L 161 333 L 161 332 L 164 330 L 164 329 L 167 327 L 167 326 L 175 318 L 176 318 L 177 316 L 179 316 L 179 314 L 180 313 L 182 313 L 182 311 L 183 310 L 185 310 L 185 309 L 187 308 L 189 305 L 190 305 L 214 281 L 215 281 L 216 279 L 220 275 L 221 275 L 222 273 L 231 264 L 232 264 L 236 260 L 236 259 L 238 258 L 239 256 L 241 255 L 242 253 L 244 252 L 257 239 L 257 238 L 259 237 L 260 235 L 262 234 L 263 232 L 265 231 L 269 227 L 269 226 L 271 225 L 271 224 L 273 223 L 277 219 L 277 218 L 279 217 L 300 196 L 300 195 L 302 194 L 315 181 L 315 180 L 317 179 L 330 166 L 331 164 L 332 164 L 333 162 L 391 162 L 392 163 L 384 169 L 384 170 L 376 178 L 375 178 L 375 179 L 372 181 L 372 182 L 369 184 L 369 185 L 367 186 L 366 188 L 364 189 L 363 191 L 361 192 L 360 194 L 358 195 L 358 196 L 355 198 L 355 199 L 352 201 L 352 202 L 349 204 L 349 205 L 347 206 L 345 209 L 343 210 L 343 211 L 340 213 L 340 214 L 338 215 L 337 217 L 335 218 L 334 220 L 332 221 L 331 223 L 329 224 L 328 226 L 326 227 L 326 228 L 323 230 L 323 231 L 320 233 L 320 234 L 318 235 L 317 237 L 314 239 L 314 240 L 311 242 L 311 243 L 308 245 L 308 246 L 306 247 L 305 249 L 303 250 L 302 252 L 300 253 L 299 255 L 297 256 L 296 258 L 294 259 L 293 261 L 291 262 L 291 263 L 288 265 L 288 266 L 285 268 L 285 269 L 282 271 L 282 272 L 279 274 L 279 275 L 276 277 L 276 278 L 273 280 L 273 281 L 271 282 L 266 288 L 264 289 L 263 291 L 261 291 L 261 298 L 266 301 L 273 309 L 273 310 L 275 311 L 275 314 L 277 315 L 278 317 L 281 319 L 285 325 L 287 326 L 287 329 L 288 329 L 290 332 L 293 334 L 296 339 L 299 341 L 299 344 L 301 345 L 302 347 L 310 354 L 311 356 L 310 357 L 313 359 L 313 361 L 320 367 L 322 370 L 322 372 L 326 376 L 326 377 L 327 377 L 328 379 L 334 384 L 334 387 L 335 387 L 337 391 L 338 391 L 340 394 L 343 396 L 345 399 L 345 401 L 348 403 L 349 406 L 350 406 L 352 409 L 353 409 L 355 412 L 357 413 L 357 416 L 359 417 L 363 423 L 364 423 L 366 426 L 369 428 L 369 430 L 371 431 L 371 433 L 374 435 L 375 438 L 376 438 L 378 441 L 379 441 L 381 444 L 382 444 L 384 447 L 386 448 L 386 451 L 388 452 L 395 460 L 395 463 L 396 463 L 401 470 L 402 470 L 404 473 L 405 473 L 407 476 L 409 477 L 409 480 L 411 481 L 414 485 L 413 486 L 357 486 L 356 485 L 356 483 L 354 483 L 353 482 L 353 480 L 351 479 L 350 475 L 349 475 L 342 467 L 342 464 L 332 455 L 330 452 L 330 449 L 329 449 L 327 446 L 321 441 L 318 437 L 318 435 L 317 435 L 312 428 L 311 428 L 309 425 L 306 423 L 306 421 L 304 420 L 304 418 L 295 409 L 295 406 L 294 406 L 289 399 L 288 399 L 286 396 L 283 394 L 281 390 L 278 388 L 278 386 L 274 382 L 274 381 L 273 381 L 268 376 L 268 375 L 266 374 L 266 371 L 264 370 L 260 364 L 257 362 L 257 359 L 256 359 L 248 350 L 248 349 L 246 348 L 246 346 L 240 340 L 240 339 L 237 337 L 237 336 L 230 328 L 224 328 L 224 330 L 222 331 L 221 333 L 218 335 L 218 336 L 215 338 L 215 339 L 212 341 L 212 342 L 209 344 L 209 345 L 207 346 L 206 348 L 204 349 L 203 351 L 201 352 L 200 354 L 198 355 L 197 357 L 195 358 L 195 359 L 192 361 L 192 362 L 189 364 L 189 365 L 187 366 L 182 371 L 182 372 L 180 373 L 179 375 L 177 376 L 174 380 L 168 385 L 167 387 L 162 390 L 162 391 L 160 392 L 155 398 L 153 398 L 151 401 L 147 403 L 147 485 L 146 486 L 105 486 L 103 484 L 103 163 Z M 914 154 L 913 155 L 906 155 L 904 158 L 904 183 L 905 184 L 905 192 L 904 193 L 904 215 L 905 216 L 905 229 L 904 230 L 904 482 L 905 483 L 905 486 L 907 487 L 947 487 L 949 485 L 949 157 L 947 155 L 944 155 L 943 154 Z M 907 156 L 947 156 L 948 157 L 948 485 L 947 486 L 907 486 L 906 485 L 906 157 Z M 850 154 L 849 155 L 843 155 L 841 157 L 841 160 L 840 161 L 840 480 L 841 481 L 841 486 L 843 487 L 883 487 L 885 485 L 885 172 L 886 171 L 886 165 L 885 164 L 885 156 L 884 155 L 878 155 L 877 154 Z M 843 156 L 883 156 L 884 157 L 884 485 L 883 486 L 843 486 L 842 485 L 842 157 Z M 1248 85 L 1232 101 L 1231 101 L 1219 114 L 1219 118 L 1234 133 L 1235 133 L 1247 146 L 1251 147 L 1281 118 L 1282 115 L 1279 111 L 1252 85 Z M 1250 86 L 1279 115 L 1279 117 L 1277 118 L 1250 145 L 1249 145 L 1248 143 L 1221 116 L 1221 115 L 1227 109 L 1228 109 L 1228 108 L 1231 106 L 1232 104 L 1234 103 L 1235 101 L 1237 100 L 1237 99 L 1240 97 L 1240 96 L 1243 94 L 1243 93 L 1245 92 Z" fill="black" fill-rule="evenodd"/>
</svg>
