<svg xmlns="http://www.w3.org/2000/svg" viewBox="0 0 1800 600" width="1800" height="600">
  <path d="M 1055 213 L 1054 214 L 1054 239 L 1058 243 L 1060 243 L 1070 250 L 1084 257 L 1229 257 L 1231 259 L 1231 455 L 1239 476 L 1241 478 L 1243 484 L 1249 492 L 1275 492 L 1276 491 L 1276 218 L 1275 215 L 1271 213 L 1157 213 L 1156 212 Z M 723 214 L 721 213 L 513 212 L 512 213 L 506 213 L 504 215 L 505 492 L 506 493 L 532 493 L 536 487 L 543 471 L 545 469 L 545 466 L 548 463 L 548 460 L 551 453 L 551 258 L 552 257 L 693 257 L 700 254 L 705 250 L 709 249 L 723 240 Z M 1382 149 L 1382 176 L 1385 181 L 1420 227 L 1423 233 L 1436 250 L 1437 253 L 1441 257 L 1453 275 L 1458 280 L 1489 325 L 1493 329 L 1497 336 L 1525 373 L 1536 390 L 1540 394 L 1543 400 L 1555 415 L 1583 415 L 1587 408 L 1600 391 L 1603 385 L 1607 381 L 1610 375 L 1612 374 L 1621 362 L 1624 356 L 1639 337 L 1639 335 L 1643 331 L 1647 324 L 1654 317 L 1655 314 L 1671 293 L 1672 290 L 1678 284 L 1679 281 L 1686 273 L 1688 268 L 1694 262 L 1697 256 L 1709 241 L 1710 238 L 1715 233 L 1718 227 L 1723 222 L 1733 206 L 1738 201 L 1740 196 L 1747 189 L 1756 175 L 1756 149 L 1755 148 L 1710 148 L 1708 149 L 1606 288 L 1577 330 L 1571 337 L 1567 337 L 1548 312 L 1545 306 L 1540 301 L 1537 295 L 1525 280 L 1522 274 L 1518 270 L 1514 263 L 1503 249 L 1502 246 L 1480 217 L 1479 214 L 1467 199 L 1464 193 L 1452 178 L 1435 152 L 1429 148 L 1383 148 Z M 91 148 L 89 150 L 89 495 L 90 497 L 93 499 L 159 499 L 161 496 L 161 417 L 224 355 L 228 355 L 242 373 L 249 380 L 254 388 L 262 396 L 267 404 L 275 412 L 280 420 L 287 427 L 305 451 L 312 458 L 317 466 L 324 473 L 328 480 L 341 496 L 346 499 L 426 499 L 428 498 L 428 473 L 423 465 L 414 456 L 408 447 L 403 442 L 399 435 L 390 426 L 370 400 L 363 393 L 358 385 L 351 378 L 349 374 L 327 348 L 325 344 L 317 336 L 312 328 L 292 305 L 287 297 L 287 292 L 377 202 L 393 189 L 405 177 L 406 175 L 406 149 L 405 148 L 322 148 L 318 150 L 166 301 L 162 301 L 161 300 L 161 154 L 160 150 L 158 148 Z M 259 261 L 263 261 L 264 266 L 260 270 L 258 270 L 258 272 L 255 273 L 255 275 L 252 276 L 251 279 L 249 279 L 249 310 L 254 313 L 261 322 L 263 323 L 263 326 L 275 338 L 275 341 L 287 353 L 287 356 L 298 366 L 298 369 L 301 371 L 301 373 L 303 375 L 303 379 L 307 379 L 314 389 L 322 396 L 322 399 L 324 400 L 326 404 L 326 408 L 330 408 L 333 411 L 333 413 L 336 415 L 337 418 L 345 425 L 345 428 L 357 440 L 357 442 L 359 443 L 359 445 L 361 447 L 361 452 L 363 452 L 364 455 L 370 456 L 374 460 L 374 463 L 380 469 L 379 474 L 369 474 L 368 471 L 365 470 L 362 463 L 354 455 L 354 452 L 352 450 L 352 446 L 348 446 L 344 443 L 342 440 L 342 437 L 333 429 L 330 425 L 330 423 L 326 419 L 326 414 L 324 414 L 323 411 L 319 411 L 316 408 L 316 406 L 307 397 L 307 394 L 303 390 L 303 385 L 301 385 L 300 382 L 296 382 L 290 376 L 290 374 L 286 369 L 278 362 L 278 359 L 269 350 L 269 347 L 265 343 L 265 338 L 259 337 L 258 334 L 242 316 L 210 315 L 209 314 L 209 310 L 243 276 L 246 276 L 248 271 L 251 270 L 251 268 L 254 267 L 254 265 L 257 264 Z M 295 229 L 296 234 L 293 235 L 293 237 L 290 238 L 290 240 L 287 241 L 287 243 L 284 244 L 284 246 L 281 247 L 280 250 L 276 250 L 275 249 L 275 244 L 278 243 L 279 241 L 281 241 L 281 238 L 284 235 L 287 235 L 287 233 L 289 232 L 290 229 Z M 327 197 L 328 202 L 325 203 L 325 205 L 322 206 L 322 208 L 319 209 L 319 211 L 316 212 L 316 214 L 312 218 L 308 218 L 307 213 L 312 209 L 312 207 L 316 206 L 316 204 L 319 203 L 319 201 L 322 200 L 323 197 Z M 350 174 L 351 179 L 348 180 L 348 182 L 344 186 L 340 186 L 339 181 L 342 179 L 342 177 L 345 174 Z M 116 174 L 133 174 L 135 176 L 135 323 L 133 325 L 133 357 L 161 357 L 162 355 L 165 354 L 169 348 L 173 348 L 173 344 L 189 328 L 191 328 L 192 325 L 197 325 L 198 326 L 197 333 L 181 349 L 175 350 L 175 354 L 155 375 L 150 378 L 143 386 L 141 386 L 139 389 L 135 391 L 135 473 L 134 474 L 117 474 L 115 472 L 115 175 Z M 831 143 L 829 145 L 828 149 L 828 492 L 829 493 L 829 498 L 831 499 L 959 499 L 961 497 L 961 145 L 959 143 L 955 142 L 902 142 L 901 143 L 890 143 L 889 142 L 838 142 L 837 143 Z M 919 168 L 935 168 L 936 169 L 936 473 L 935 474 L 919 474 L 918 473 L 918 169 Z M 855 168 L 871 168 L 872 169 L 872 473 L 871 474 L 855 474 L 854 473 L 854 169 Z M 1236 73 L 1207 102 L 1207 130 L 1235 158 L 1237 159 L 1263 159 L 1293 130 L 1294 128 L 1294 103 L 1264 73 Z M 1247 113 L 1252 112 L 1253 113 L 1253 118 L 1248 119 L 1247 118 Z" fill="black" fill-rule="evenodd"/>
</svg>
